<?xml version="1.0" encoding="UTF-8"?>
<svg width="24px" height="24px" viewBox="0 0 24 24" version="1.1" xmlns="http://www.w3.org/2000/svg" xmlns:xlink="http://www.w3.org/1999/xlink">
    <path d="M12,2.3 C6.64283793,2.3 2.3,6.64283793 2.3,12 C2.3,17.3571621 6.64283793,21.7 12,21.7 L12.3639607,21.6932837 C13.8156043,21.6396341 15.2145915,21.2655416 16.4793177,20.6059193 L16.541,20.571 L20.2593027,21.4959589 C20.4750436,21.5495991 20.7019996,21.5366031 20.9102299,21.4586782 L21.0202219,21.4106246 C21.5154629,21.1615268 21.7536491,20.5739636 21.5549188,20.0429182 L20.376,16.893 L20.5600281,16.566315 C21.3033042,15.1759729 21.7,13.6166477 21.7,12 C21.7,6.64283793 17.3571621,2.3 12,2.3 Z M12,3.7 C16.5839634,3.7 20.3,7.41603658 20.3,12 C20.3,13.5974424 19.8486333,15.1264072 19.0109187,16.4447762 L18.9598943,16.5408149 C18.8879854,16.7060005 18.8820115,16.894142 18.9461219,17.0654903 L20.043,19.999 L16.6152035,19.1474391 C16.4407229,19.1040639 16.2562423,19.1294873 16.0999979,19.2184399 C14.8609585,19.9238462 13.45867,20.3 12,20.3 C7.41603658,20.3 3.7,16.5839634 3.7,12 C3.7,7.41603658 7.41603658,3.7 12,3.7 Z"></path>
</svg>