<?xml version="1.0" encoding="UTF-8"?>
<svg width="24px" height="24px" viewBox="0 0 24 24" version="1.1" xmlns="http://www.w3.org/2000/svg" xmlns:xlink="http://www.w3.org/1999/xlink">
    <path d="M16.445021,3.3946082 C14.7382723,3.4655037 13.1773577,4.27487568 12.0920362,5.57381695 L12,5.688 L11.9080133,5.57376763 C10.7709101,4.21299078 9.11195739,3.38953079 7.31020135,3.38953079 C3.92577121,3.38953079 1.2,6.26517036 1.2,9.79169763 L1.20190354,9.95061315 C1.23261594,11.1938319 1.56580839,12.2720986 2.23504734,13.3111983 L2.30899785,13.4170783 L2.41128256,13.5490105 L2.70182653,13.8921708 L2.995919,14.2200472 L3.63361628,14.9036548 L4.27874981,15.5765378 L5.47596558,16.8012001 L7.43389957,18.7710117 L9.70486816,21.0292997 L11.4483372,22.7512918 C11.5076603,22.8097523 11.5757486,22.8585905 11.6501415,22.8960412 C11.9492102,23.0465977 12.3307287,23.0465977 12.6297467,22.7406188 L14.6544759,20.684864 L19.4532573,15.8671791 L20.4215233,14.8742939 L20.9110073,14.3573769 L21.2051966,14.0357033 L21.3695611,13.8493553 L21.5724171,13.6075389 C21.5922086,13.5829988 21.611117,13.5591979 21.6291753,13.5360991 L21.7696344,13.3461648 L21.8404037,13.2376399 C22.4638648,12.216287 22.8,11.0287817 22.8,9.79169763 C22.8,6.26517036 20.0742288,3.38953079 16.6897987,3.38953079 L16.445021,3.3946082 Z M16.6897987,4.98953079 C19.170855,4.98953079 21.2,7.13024229 21.2,9.79169763 C21.2,10.7336318 20.9454668,11.6328519 20.4747371,12.4040005 L20.4204192,12.4845451 L20.3426911,12.5862339 L20.1802615,12.7805164 L19.8734624,13.1225411 L19.4570336,13.5664547 L18.6112906,14.4401982 L17.0336067,16.0336145 L13.0259164,20.0555061 L12.024,21.071 L9.27462628,18.3473781 L6.85983928,15.9251009 L5.81941125,14.8653425 L4.82291497,13.8325978 L4.10817871,13.068552 L3.93379694,12.8750467 L3.73301743,12.6432216 L3.60599346,12.482458 L3.58019855,12.4448449 C3.06967759,11.6521801 2.82483864,10.8598402 2.80159743,9.92092692 L2.79993887,9.78180799 C2.79993887,7.13024229 4.82914504,4.98953079 7.31020135,4.98953079 C8.98506771,4.98953079 10.502961,5.97151016 11.2859545,7.52234233 C11.5817918,8.10829096 12.4184794,8.10825511 12.7142665,7.52228114 C13.4970581,5.97151878 15.01492,4.98953079 16.6897987,4.98953079 Z"></path>
</svg>